<svg width="141" height="51" viewBox="0 0 141 51" fill="none" xmlns="http://www.w3.org/2000/svg">
<path d="M81.4126 16.6782V18.647H70.646L70.564 17.1602L77.0034 7.07031H78.9824L76.8394 10.7412L73.1377 16.6782H81.4126ZM79.5464 7.07031V22H77.0752V7.07031H79.5464ZM92.7944 13.2842V15.7246C92.7944 16.8936 92.6782 17.8916 92.4458 18.7188C92.2202 19.5391 91.8921 20.2056 91.4614 20.7183C91.0308 21.231 90.5146 21.6069 89.9131 21.8462C89.3184 22.0854 88.6519 22.2051 87.9136 22.2051C87.3257 22.2051 86.7788 22.1299 86.2729 21.9795C85.7739 21.8291 85.3228 21.5933 84.9194 21.272C84.5161 20.9507 84.1709 20.5371 83.8838 20.0312C83.6035 19.5186 83.3848 18.9067 83.2275 18.1958C83.0771 17.4849 83.002 16.6611 83.002 15.7246V13.2842C83.002 12.1084 83.1182 11.1172 83.3506 10.3105C83.583 9.49707 83.9146 8.8374 84.3452 8.33154C84.7759 7.81885 85.2886 7.44629 85.8833 7.21387C86.4849 6.98145 87.1548 6.86523 87.8931 6.86523C88.4878 6.86523 89.0347 6.94043 89.5337 7.09082C90.0396 7.23438 90.4907 7.46338 90.8872 7.77783C91.2905 8.09229 91.6323 8.50244 91.9126 9.0083C92.1997 9.50732 92.4185 10.1123 92.5688 10.8232C92.7192 11.5273 92.7944 12.3477 92.7944 13.2842ZM90.3232 16.0732V12.915C90.3232 12.3203 90.2891 11.7974 90.2207 11.3462C90.1523 10.8882 90.0498 10.502 89.9131 10.1875C89.7832 9.86621 89.6191 9.60645 89.4209 9.4082C89.2227 9.20312 88.9971 9.05615 88.7441 8.96729C88.4912 8.87158 88.2075 8.82373 87.8931 8.82373C87.5103 8.82373 87.1685 8.89893 86.8677 9.04932C86.5669 9.19287 86.314 9.42529 86.1089 9.74658C85.9038 10.0679 85.7466 10.4917 85.6372 11.0181C85.5347 11.5376 85.4834 12.1699 85.4834 12.915V16.0732C85.4834 16.6748 85.5176 17.2046 85.5859 17.6626C85.6543 18.1206 85.7568 18.5137 85.8936 18.8418C86.0303 19.1631 86.1943 19.4297 86.3857 19.6416C86.584 19.8467 86.8096 19.9971 87.0625 20.0928C87.3223 20.1885 87.606 20.2363 87.9136 20.2363C88.3032 20.2363 88.6484 20.1611 88.9492 20.0107C89.25 19.8604 89.5029 19.6211 89.708 19.293C89.9131 18.958 90.0669 18.5239 90.1694 17.9907C90.272 17.4575 90.3232 16.8184 90.3232 16.0732ZM104.781 13.8174V16.0425H94.5479V13.8174H104.781ZM100.864 9.63379V20.5029H98.4751V9.63379H100.864Z" fill="white"/>
<path d="M76.7344 38.5469V39.7422H72.4609V38.5469H76.7344ZM72.6719 38.5469V47H71.2266V38.5469H72.6719ZM78.0156 38.5469V47H76.5625V38.5469H78.0156ZM81.7812 40.1719V50.25H80.3281V38.5469H81.6562L81.7812 40.1719ZM87.4766 42.7031V42.8672C87.4766 43.4818 87.4036 44.0521 87.2578 44.5781C87.112 45.099 86.8984 45.5521 86.6172 45.9375C86.3411 46.3229 86 46.6224 85.5938 46.8359C85.1875 47.0495 84.7214 47.1562 84.1953 47.1562C83.6589 47.1562 83.1849 47.0677 82.7734 46.8906C82.362 46.7135 82.013 46.4557 81.7266 46.1172C81.4401 45.7786 81.2109 45.3724 81.0391 44.8984C80.8724 44.4245 80.7578 43.8906 80.6953 43.2969V42.4219C80.7578 41.7969 80.875 41.237 81.0469 40.7422C81.2188 40.2474 81.4453 39.8255 81.7266 39.4766C82.013 39.1224 82.3594 38.8542 82.7656 38.6719C83.1719 38.4844 83.6406 38.3906 84.1719 38.3906C84.7031 38.3906 85.1745 38.4948 85.5859 38.7031C85.9974 38.9062 86.3438 39.1979 86.625 39.5781C86.9062 39.9583 87.1172 40.4141 87.2578 40.9453C87.4036 41.4714 87.4766 42.0573 87.4766 42.7031ZM86.0234 42.8672V42.7031C86.0234 42.2812 85.9792 41.8854 85.8906 41.5156C85.8021 41.1406 85.6641 40.8125 85.4766 40.5312C85.2943 40.2448 85.0599 40.0208 84.7734 39.8594C84.487 39.6927 84.1458 39.6094 83.75 39.6094C83.3854 39.6094 83.0677 39.6719 82.7969 39.7969C82.5312 39.9219 82.3047 40.0911 82.1172 40.3047C81.9297 40.513 81.776 40.7526 81.6562 41.0234C81.5417 41.2891 81.4557 41.5651 81.3984 41.8516V43.875C81.5026 44.2396 81.6484 44.5833 81.8359 44.9062C82.0234 45.224 82.2734 45.4818 82.5859 45.6797C82.8984 45.8724 83.2917 45.9688 83.7656 45.9688C84.1562 45.9688 84.4922 45.888 84.7734 45.7266C85.0599 45.5599 85.2943 45.3333 85.4766 45.0469C85.6641 44.7604 85.8021 44.4323 85.8906 44.0625C85.9792 43.6875 86.0234 43.2891 86.0234 42.8672ZM88.9375 42.8672V42.6875C88.9375 42.0781 89.026 41.513 89.2031 40.9922C89.3802 40.4661 89.6354 40.0104 89.9688 39.625C90.3021 39.2344 90.7057 38.9323 91.1797 38.7188C91.6536 38.5 92.1849 38.3906 92.7734 38.3906C93.3672 38.3906 93.901 38.5 94.375 38.7188C94.8542 38.9323 95.2604 39.2344 95.5938 39.625C95.9323 40.0104 96.1901 40.4661 96.3672 40.9922C96.5443 41.513 96.6328 42.0781 96.6328 42.6875V42.8672C96.6328 43.4766 96.5443 44.0417 96.3672 44.5625C96.1901 45.0833 95.9323 45.5391 95.5938 45.9297C95.2604 46.3151 94.8568 46.6172 94.3828 46.8359C93.9141 47.0495 93.3828 47.1562 92.7891 47.1562C92.1953 47.1562 91.6615 47.0495 91.1875 46.8359C90.7135 46.6172 90.3073 46.3151 89.9688 45.9297C89.6354 45.5391 89.3802 45.0833 89.2031 44.5625C89.026 44.0417 88.9375 43.4766 88.9375 42.8672ZM90.3828 42.6875V42.8672C90.3828 43.2891 90.4323 43.6875 90.5312 44.0625C90.6302 44.4323 90.7786 44.7604 90.9766 45.0469C91.1797 45.3333 91.4323 45.5599 91.7344 45.7266C92.0365 45.888 92.388 45.9688 92.7891 45.9688C93.1849 45.9688 93.5312 45.888 93.8281 45.7266C94.1302 45.5599 94.3802 45.3333 94.5781 45.0469C94.776 44.7604 94.9245 44.4323 95.0234 44.0625C95.1276 43.6875 95.1797 43.2891 95.1797 42.8672V42.6875C95.1797 42.2708 95.1276 41.8776 95.0234 41.5078C94.9245 41.1328 94.7734 40.8021 94.5703 40.5156C94.3724 40.224 94.1224 39.9948 93.8203 39.8281C93.5234 39.6615 93.1745 39.5781 92.7734 39.5781C92.3776 39.5781 92.0286 39.6615 91.7266 39.8281C91.4297 39.9948 91.1797 40.224 90.9766 40.5156C90.7786 40.8021 90.6302 41.1328 90.5312 41.5078C90.4323 41.8776 90.3828 42.2708 90.3828 42.6875ZM101.953 47.1562C101.365 47.1562 100.831 47.0573 100.352 46.8594C99.8776 46.6562 99.4688 46.3724 99.125 46.0078C98.7865 45.6432 98.526 45.2109 98.3438 44.7109C98.1615 44.2109 98.0703 43.6641 98.0703 43.0703V42.7422C98.0703 42.0547 98.1719 41.4427 98.375 40.9062C98.5781 40.3646 98.8542 39.9062 99.2031 39.5312C99.5521 39.1562 99.9479 38.8724 100.391 38.6797C100.833 38.487 101.292 38.3906 101.766 38.3906C102.37 38.3906 102.891 38.4948 103.328 38.7031C103.771 38.9115 104.133 39.2031 104.414 39.5781C104.695 39.9479 104.904 40.3854 105.039 40.8906C105.174 41.3906 105.242 41.9375 105.242 42.5312V43.1797H98.9297V42H103.797V41.8906C103.776 41.5156 103.698 41.151 103.562 40.7969C103.432 40.4427 103.224 40.151 102.938 39.9219C102.651 39.6927 102.26 39.5781 101.766 39.5781C101.438 39.5781 101.135 39.6484 100.859 39.7891C100.583 39.9245 100.346 40.1276 100.148 40.3984C99.9505 40.6693 99.7969 41 99.6875 41.3906C99.5781 41.7812 99.5234 42.2318 99.5234 42.7422V43.0703C99.5234 43.4714 99.5781 43.849 99.6875 44.2031C99.8021 44.5521 99.9661 44.8594 100.18 45.125C100.398 45.3906 100.661 45.599 100.969 45.75C101.281 45.901 101.635 45.9766 102.031 45.9766C102.542 45.9766 102.974 45.8724 103.328 45.6641C103.682 45.4557 103.992 45.1771 104.258 44.8281L105.133 45.5234C104.951 45.7995 104.719 46.0625 104.438 46.3125C104.156 46.5625 103.81 46.7656 103.398 46.9219C102.992 47.0781 102.51 47.1562 101.953 47.1562ZM108.5 38.5469V47H107.055V38.5469H108.5ZM114.047 38.5469L110.039 43.3906H108.016L107.797 42.125H109.453L112.289 38.5469H114.047ZM112.492 47L109.383 43.1719L110.312 42.125L114.328 47H112.492ZM119.031 38.5469V47H117.578V38.5469H119.031ZM121.867 38.5469V39.7188H114.797V38.5469H121.867ZM122.578 42.8672V42.6875C122.578 42.0781 122.667 41.513 122.844 40.9922C123.021 40.4661 123.276 40.0104 123.609 39.625C123.943 39.2344 124.346 38.9323 124.82 38.7188C125.294 38.5 125.826 38.3906 126.414 38.3906C127.008 38.3906 127.542 38.5 128.016 38.7188C128.495 38.9323 128.901 39.2344 129.234 39.625C129.573 40.0104 129.831 40.4661 130.008 40.9922C130.185 41.513 130.273 42.0781 130.273 42.6875V42.8672C130.273 43.4766 130.185 44.0417 130.008 44.5625C129.831 45.0833 129.573 45.5391 129.234 45.9297C128.901 46.3151 128.497 46.6172 128.023 46.8359C127.555 47.0495 127.023 47.1562 126.43 47.1562C125.836 47.1562 125.302 47.0495 124.828 46.8359C124.354 46.6172 123.948 46.3151 123.609 45.9297C123.276 45.5391 123.021 45.0833 122.844 44.5625C122.667 44.0417 122.578 43.4766 122.578 42.8672ZM124.023 42.6875V42.8672C124.023 43.2891 124.073 43.6875 124.172 44.0625C124.271 44.4323 124.419 44.7604 124.617 45.0469C124.82 45.3333 125.073 45.5599 125.375 45.7266C125.677 45.888 126.029 45.9688 126.43 45.9688C126.826 45.9688 127.172 45.888 127.469 45.7266C127.771 45.5599 128.021 45.3333 128.219 45.0469C128.417 44.7604 128.565 44.4323 128.664 44.0625C128.768 43.6875 128.82 43.2891 128.82 42.8672V42.6875C128.82 42.2708 128.768 41.8776 128.664 41.5078C128.565 41.1328 128.414 40.8021 128.211 40.5156C128.013 40.224 127.763 39.9948 127.461 39.8281C127.164 39.6615 126.815 39.5781 126.414 39.5781C126.018 39.5781 125.669 39.6615 125.367 39.8281C125.07 39.9948 124.82 40.224 124.617 40.5156C124.419 40.8021 124.271 41.1328 124.172 41.5078C124.073 41.8776 124.023 42.2708 124.023 42.6875ZM136.055 43.2812H133.281L133.266 42.125H135.531C135.979 42.125 136.352 42.0807 136.648 41.9922C136.951 41.9036 137.177 41.7708 137.328 41.5938C137.479 41.4167 137.555 41.1979 137.555 40.9375C137.555 40.7344 137.51 40.5573 137.422 40.4062C137.339 40.25 137.211 40.1224 137.039 40.0234C136.867 39.9193 136.654 39.8438 136.398 39.7969C136.148 39.7448 135.854 39.7188 135.516 39.7188H133.664V47H132.219V38.5469H135.516C136.052 38.5469 136.534 38.5938 136.961 38.6875C137.393 38.7812 137.76 38.9245 138.062 39.1172C138.37 39.3047 138.604 39.5443 138.766 39.8359C138.927 40.1276 139.008 40.4714 139.008 40.8672C139.008 41.1224 138.956 41.3646 138.852 41.5938C138.747 41.8229 138.594 42.026 138.391 42.2031C138.188 42.3802 137.938 42.526 137.641 42.6406C137.344 42.75 137.003 42.8203 136.617 42.8516L136.055 43.2812ZM136.055 47H132.758L133.477 45.8281H136.055C136.456 45.8281 136.789 45.7786 137.055 45.6797C137.32 45.5755 137.518 45.4297 137.648 45.2422C137.784 45.0495 137.852 44.8203 137.852 44.5547C137.852 44.2891 137.784 44.0625 137.648 43.875C137.518 43.6823 137.32 43.5365 137.055 43.4375C136.789 43.3333 136.456 43.2812 136.055 43.2812H133.859L133.875 42.125H136.617L137.141 42.5625C137.604 42.599 137.997 42.7135 138.32 42.9062C138.643 43.099 138.888 43.3438 139.055 43.6406C139.221 43.9323 139.305 44.25 139.305 44.5938C139.305 44.9896 139.229 45.3385 139.078 45.6406C138.932 45.9427 138.719 46.1953 138.438 46.3984C138.156 46.5964 137.815 46.7474 137.414 46.8516C137.013 46.9505 136.56 47 136.055 47Z" fill="white"/>
<path d="M49.1665 0H11.6666C11.2064 0 10.8333 0.373124 10.8333 0.833332V13.3333H12.5V1.66666H48.3332V47.4999C48.3412 47.9381 48.0031 48.3052 47.5657 48.3332C47.494 48.3332 47.4224 48.3274 47.3507 48.3257C47.2032 48.3216 47.0557 48.3182 46.9107 48.3032C46.8982 48.3032 46.8866 48.3032 46.8741 48.2982C44.1524 48.0007 42.0025 45.8529 41.7024 43.1316C41.7024 43.1199 41.6982 43.1074 41.6966 43.0957C41.6764 42.8977 41.6664 42.6989 41.6666 42.4999V40.8333C41.6666 40.373 41.2934 39.9999 40.8332 39.9999H12.5V24.9999H10.8333V39.9999H4.16664C3.70644 39.9999 3.33331 40.373 3.33331 40.8333V42.4999C3.3379 46.6401 6.6931 49.9953 10.8333 49.9999H47.5832C48.9355 49.9645 50.0103 48.8526 49.9999 47.4999V0.833332C49.9999 0.373124 49.6268 0 49.1665 0ZM10.8333 48.3332C7.6132 48.3296 5.00362 45.72 4.99998 42.4999V41.6666H39.9999V42.4999C40.001 42.7747 40.0169 43.0493 40.0474 43.3224C40.0549 43.3949 40.0691 43.4649 40.0791 43.5366C40.1066 43.7382 40.1399 43.9391 40.1841 44.1366C40.1991 44.2057 40.2182 44.2741 40.2357 44.3432C40.2866 44.5441 40.3441 44.7416 40.4107 44.9366C40.4299 44.9924 40.4499 45.0474 40.4707 45.1032C40.5466 45.3099 40.6324 45.5116 40.7266 45.7107C40.7466 45.7516 40.7649 45.7941 40.7849 45.8316C40.8894 46.0427 41.0041 46.2479 41.1291 46.4474C41.1457 46.4741 41.1607 46.5016 41.1774 46.5307C41.3132 46.7436 41.4599 46.9494 41.6166 47.1474L41.6432 47.1832C41.8251 47.4117 42.0199 47.6295 42.2266 47.8357C42.406 48.0135 42.5921 48.1802 42.7849 48.3357L10.8333 48.3332Z" fill="white"/>
<path d="M27.4999 23.3333C27.721 23.3333 27.9329 23.2454 28.0891 23.0891L31.4224 19.7558C31.7477 19.4304 31.7477 18.9029 31.4224 18.5775L28.0891 15.2441C27.9329 15.0879 27.721 15 27.4999 15H4.16666C1.86552 15 0 16.8655 0 19.1666C0 21.4678 1.86552 23.3333 4.16666 23.3333H27.4999ZM27.2849 16.7966L29.6549 19.1666L27.2849 21.5366L26.6924 19.1666L27.2849 16.7966ZM6.66665 16.6666H25.5999L25.1833 18.3333H8.33332V20H25.1833L25.5999 21.6666H6.66665V16.6666ZM1.66666 19.1666C1.66666 17.7859 2.78593 16.6666 4.16666 16.6666H4.99999V21.6666H4.16666C2.78593 21.6666 1.66666 20.5474 1.66666 19.1666Z" fill="white"/>
<path d="M19.1667 35.8333H44.1666C44.6268 35.8333 44.9999 35.4601 44.9999 34.9999V9.99998C44.9998 9.53977 44.6267 9.16675 44.1664 9.16685C43.9455 9.16685 43.7337 9.25467 43.5774 9.41081L18.5775 34.4108C18.2521 34.7363 18.2522 35.2639 18.5777 35.5893C18.734 35.7454 18.9457 35.8333 19.1667 35.8333ZM43.3333 12.0116V14.1666H41.6666V15.8333H43.3333V17.5H41.6666V19.1666H43.3333V20.8333H41.6666V22.5H43.3333V24.1666H41.6666V25.8333H43.3333V27.4999H41.6666V29.1666H43.3333V30.8333H41.6666V32.4999H43.3333V34.1666H41.6666V32.4999H40V34.1666H38.3333V32.4999H36.6666V34.1666H35V32.4999H33.3333V34.1666H31.6666V32.4999H30V34.1666H28.3333V32.4999H26.6666V34.1666H25V32.4999H23.3333V34.1666H21.1783L43.3333 12.0116Z" fill="white"/>
<path d="M31.2375 30.8333H39.1666C39.6268 30.8333 40 30.4602 40 29.9999V22.0708C39.9999 21.6106 39.6267 21.2376 39.1664 21.2377C38.9455 21.2377 38.7337 21.3255 38.5775 21.4816L30.6483 29.4108C30.3229 29.7363 30.323 30.2639 30.6485 30.5893C30.8048 30.7455 31.0165 30.8333 31.2375 30.8333ZM38.3333 24.0833V29.1666H33.25L38.3333 24.0833Z" fill="white"/>
<path d="M38.3333 4.99998H21.6666V6.66665H38.3333V4.99998Z" fill="white"/>
<path d="M40.8332 8.33331H19.1666V9.99998H40.8332V8.33331Z" fill="white"/>
<path d="M19.1666 25.8333H14.1666V27.4999H19.1666V25.8333Z" fill="white"/>
<path d="M17.5 29.1666H14.1666V30.8333H17.5V29.1666Z" fill="white"/>
</svg>
